# xmcd
#
# Track frame offsets:
#	150
#	15914
#	32250
#	46386
#	68705
#	90932
#	105619
#	123159
#	139436
#	155360
#	171461
#	191657
#
# Disc length: 2767 seconds
#
# Revision: 1
# Processed by: cddbd v1.5.1PL0 Copyright (c) Steve Scherf et al.
# Submitted via: audiograbber 1.83.01
#
DISCID=910acd0c
DTITLE=최유나 - [同 行 CD2]
DYEAR=1900
DGENRE=가요
TTITLE0=사랑합니다
TTITLE1=왜 모르시나
TTITLE2=그대가 나를 사랑하신다면
TTITLE3=석 양
TTITLE4=모래성
TTITLE5=밀 회
TTITLE6=가까이 하기엔 너무 먼 당신
TTITLE7=우린 너무 쉽게 헤어졌어요
TTITLE8=보통 여자
TTITLE9=애 인
TTITLE10=잃어버린 우산
TTITLE11=여 심
EXTD=
EXTT0=
EXTT1=
EXTT2=
EXTT3=
EXTT4=
EXTT5=
EXTT6=
EXTT7=
EXTT8=
EXTT9=
EXTT10=
EXTT11=
PLAYORDER=
